<?xml version="1.0" encoding="UTF-8" standalone="no"?>
<!-- Created with Inkscape (http://www.inkscape.org/) -->

<svg
   xmlns:dc="http://purl.org/dc/elements/1.1/"
   xmlns:cc="http://creativecommons.org/ns#"
   xmlns:rdf="http://www.w3.org/1999/02/22-rdf-syntax-ns#"
   xmlns:svg="http://www.w3.org/2000/svg"
   xmlns="http://www.w3.org/2000/svg"
   xmlns:sodipodi="http://sodipodi.sourceforge.net/DTD/sodipodi-0.dtd"
   xmlns:inkscape="http://www.inkscape.org/namespaces/inkscape"
   width="150"
   height="150"
   viewBox="0 0 150 150"
   version="1.1"
   id="svg8"
   inkscape:version="0.92.3 (2405546, 2018-03-11)"
   sodipodi:docname="wbn_welcom_e_.svg">
  <defs
     id="defs2" />
  <sodipodi:namedview
     id="base"
     pagecolor="#ffffff"
     bordercolor="#666666"
     borderopacity="1.0"
     inkscape:pageopacity="0.0"
     inkscape:pageshadow="2"
     inkscape:zoom="3.7248815"
     inkscape:cx="75"
     inkscape:cy="75.4189"
     inkscape:document-units="px"
     inkscape:current-layer="layer1"
     showgrid="true"
     units="px"
     inkscape:window-width="1318"
     inkscape:window-height="743"
     inkscape:window-x="0"
     inkscape:window-y="0"
     inkscape:window-maximized="1">
    <inkscape:grid
       type="xygrid"
       id="grid10"
       empspacing="15"
       snapvisiblegridlinesonly="false" />
  </sodipodi:namedview>
  <metadata
     id="metadata5">
    <rdf:RDF>
      <cc:Work
         rdf:about="">
        <dc:format>image/svg+xml</dc:format>
        <dc:type
           rdf:resource="http://purl.org/dc/dcmitype/StillImage" />
        <dc:title></dc:title>
      </cc:Work>
    </rdf:RDF>
  </metadata>
  <g
     inkscape:label="Layer 1"
     inkscape:groupmode="layer"
     id="layer1"
     transform="translate(0,-257.31248)">
    <g
       id="g3778">
      <path
         inkscape:connector-curvature="0"
         id="path37"
         d="m 75,257.31248 75,75 -75,75 -75,-75 z"
         style="fill:none;stroke:#000000;stroke-width:1px;stroke-linecap:butt;stroke-linejoin:miter;stroke-opacity:1" />
      <path
         style="fill:none;stroke:#000000;stroke-width:0.45460662px;stroke-linecap:butt;stroke-linejoin:miter;stroke-opacity:1"
         d="M 128,407.31248 128.066,385.39212 22,385.37848 21.934,407.29884 Z"
         id="path39"
         inkscape:connector-curvature="0" />
      <path
         inkscape:connector-curvature="0"
         id="path3744"
         d="m 104.96271,377.31248 0.0373,29.98135 -59.962711,0.0186 L 45,377.33114 Z"
         style="fill:none;stroke:#000000;stroke-width:0.39975142px;stroke-linecap:butt;stroke-linejoin:miter;stroke-opacity:1" />
      <path
         transform="translate(0,257.31248)"
         inkscape:connector-curvature="0"
         id="path3746"
         d="m 22.27349,139.07241 v -10.68998 l 11.074178,0.11716 c 6.090798,0.0644 11.129052,0.16791 11.196121,0.22994 0.06707,0.062 0.172739,4.81979 0.234823,10.57282 l 0.112881,10.46005 H 33.582492 22.27349 Z"
         style="fill:#44aa00;stroke-width:0.26846492" />
      <path
         transform="translate(0,257.31248)"
         inkscape:connector-curvature="0"
         id="path3748"
         d="m 45.361473,139.15803 v -10.60436 h 3.692667 3.692667 l 10.601816,10.60436 10.601816,10.60437 H 59.655956 45.361473 Z"
         style="fill:#44aa00;stroke-width:0.26846492" />
      <path
         transform="translate(0,257.31248)"
         inkscape:connector-curvature="0"
         id="path3750"
         d="M 64.556715,138.75533 54.357697,128.55367 H 74.892614 95.42753 l -10.199017,10.20166 c -5.609459,5.61092 -10.260614,10.20167 -10.335899,10.20167 -0.07528,0 -4.72644,-4.59075 -10.335899,-10.20167 z"
         style="fill:#44aa00;stroke-width:0.26846492" />
      <path
         transform="translate(0,257.31248)"
         inkscape:connector-curvature="0"
         id="path3752"
         d="m 86.70507,139.15803 10.601816,-10.60436 h 3.692664 3.69267 v 10.60436 10.60437 H 90.397737 76.103255 Z"
         style="fill:#44aa00;stroke-width:0.26846492" />
      <path
         transform="translate(0,257.31248)"
         inkscape:connector-curvature="0"
         id="path3754"
         d="m 105.22915,139.15803 v -10.60436 h 11.27553 11.27552 v 10.60436 10.60437 h -11.27552 -11.27553 z"
         style="fill:#44aa00;stroke-width:0.26846492" />
      <path
         transform="translate(0,257.31248)"
         inkscape:connector-curvature="0"
         id="path3756"
         d="m 101.33641,124.52669 c 1.76725,-1.77187 3.24528,-3.22158 3.2845,-3.22158 0.0392,0 0.0713,1.44971 0.0713,3.22158 v 3.22158 h -3.2845 -3.284497 z"
         style="fill:#44aa00;stroke-width:0.26846492" />
      <path
         transform="translate(0,257.31248)"
         inkscape:connector-curvature="0"
         id="path3758"
         d="m 45.361473,124.46377 v -3.2845 l 3.221579,3.21319 c 1.771869,1.76725 3.221579,3.24528 3.221579,3.2845 0,0.0392 -1.44971,0.0713 -3.221579,0.0713 h -3.221579 z"
         style="fill:#44aa00;stroke-width:0.26846492" />
      <path
         transform="translate(0,257.31248)"
         inkscape:connector-curvature="0"
         id="path3760"
         d="M 23.145516,97.344137 0.79653126,74.993952 37.844574,37.946639 74.892614,0.8993279 111.94065,37.946639 148.9887,74.993952 126.63971,97.344137 104.29073,119.69432 H 74.892614 45.4945 Z"
         style="fill:#44aa00;stroke-width:0.26846492" />
      <path
         transform="translate(0,257.31248)"
         inkscape:connector-curvature="0"
         id="path3762"
         d="m 49.791144,123.98976 -3.751315,-3.75851 H 74.892614 103.7454 l -3.751316,3.75851 -3.751317,3.75851 H 74.892614 53.54246 Z"
         style="fill:#44aa00;stroke-width:0.26846492" />
    </g>
    <g
       id="g3804"
       transform="matrix(0.7946513,0,0,0.7946513,15.284633,68.123413)">
      <path
         style="fill:none;stroke:#000000;stroke-width:1px;stroke-linecap:butt;stroke-linejoin:miter;stroke-opacity:1"
         d="m 75,257.31248 75,75 -75,75 -75,-75 z"
         id="path3780"
         inkscape:connector-curvature="0" />
      <path
         inkscape:connector-curvature="0"
         id="path3782"
         d="M 128,407.31248 128.066,385.39212 22,385.37848 21.934,407.29884 Z"
         style="fill:none;stroke:#000000;stroke-width:0.45460662px;stroke-linecap:butt;stroke-linejoin:miter;stroke-opacity:1" />
      <path
         style="fill:none;stroke:#000000;stroke-width:0.39975142px;stroke-linecap:butt;stroke-linejoin:miter;stroke-opacity:1"
         d="m 104.96271,377.31248 0.0373,29.98135 -59.962711,0.0186 L 45,377.33114 Z"
         id="path3784"
         inkscape:connector-curvature="0" />
      <path
         style="fill:#44aa00;stroke-width:0.26846492"
         d="m 22.27349,139.07241 v -10.68998 l 11.074178,0.11716 c 6.090798,0.0644 11.129052,0.16791 11.196121,0.22994 0.06707,0.062 0.172739,4.81979 0.234823,10.57282 l 0.112881,10.46005 H 33.582492 22.27349 Z"
         id="path3786"
         inkscape:connector-curvature="0"
         transform="translate(0,257.31248)" />
      <path
         style="fill:#44aa00;stroke-width:0.26846492"
         d="m 45.361473,139.15803 v -10.60436 h 3.692667 3.692667 l 10.601816,10.60436 10.601816,10.60437 H 59.655956 45.361473 Z"
         id="path3788"
         inkscape:connector-curvature="0"
         transform="translate(0,257.31248)" />
      <path
         style="fill:#44aa00;stroke-width:0.26846492"
         d="M 64.556715,138.75533 54.357697,128.55367 H 74.892614 95.42753 l -10.199017,10.20166 c -5.609459,5.61092 -10.260614,10.20167 -10.335899,10.20167 -0.07528,0 -4.72644,-4.59075 -10.335899,-10.20167 z"
         id="path3790"
         inkscape:connector-curvature="0"
         transform="translate(0,257.31248)" />
      <path
         style="fill:#44aa00;stroke-width:0.26846492"
         d="m 86.70507,139.15803 10.601816,-10.60436 h 3.692664 3.69267 v 10.60436 10.60437 H 90.397737 76.103255 Z"
         id="path3792"
         inkscape:connector-curvature="0"
         transform="translate(0,257.31248)" />
      <path
         style="fill:#44aa00;stroke-width:0.26846492"
         d="m 105.22915,139.15803 v -10.60436 h 11.27553 11.27552 v 10.60436 10.60437 h -11.27552 -11.27553 z"
         id="path3794"
         inkscape:connector-curvature="0"
         transform="translate(0,257.31248)" />
      <path
         style="fill:#44aa00;stroke-width:0.26846492"
         d="m 101.33641,124.52669 c 1.76725,-1.77187 3.24528,-3.22158 3.2845,-3.22158 0.0392,0 0.0713,1.44971 0.0713,3.22158 v 3.22158 h -3.2845 -3.284497 z"
         id="path3796"
         inkscape:connector-curvature="0"
         transform="translate(0,257.31248)" />
      <path
         style="fill:#44aa00;stroke-width:0.26846492"
         d="m 45.361473,124.46377 v -3.2845 l 3.221579,3.21319 c 1.771869,1.76725 3.221579,3.24528 3.221579,3.2845 0,0.0392 -1.44971,0.0713 -3.221579,0.0713 h -3.221579 z"
         id="path3798"
         inkscape:connector-curvature="0"
         transform="translate(0,257.31248)" />
      <path
         style="fill:#44aa00;stroke-width:0.26846492"
         d="M 23.145516,97.344137 0.79653126,74.993952 37.844574,37.946639 74.892614,0.8993279 111.94065,37.946639 148.9887,74.993952 126.63971,97.344137 104.29073,119.69432 H 74.892614 45.4945 Z"
         id="path3800"
         inkscape:connector-curvature="0"
         transform="translate(0,257.31248)" />
      <path
         style="fill:#44aa00;stroke-width:0.26846492"
         d="m 49.791144,123.98976 -3.751315,-3.75851 H 74.892614 103.7454 l -3.751316,3.75851 -3.751317,3.75851 H 74.892614 53.54246 Z"
         id="path3802"
         inkscape:connector-curvature="0"
         transform="translate(0,257.31248)" />
    </g>
    <g
       transform="matrix(0.58992508,0,0,0.58992508,30.759191,136.27658)"
       id="g3830">
      <path
         inkscape:connector-curvature="0"
         id="path3806"
         d="m 75,257.31248 75,75 -75,75 -75,-75 z"
         style="fill:none;stroke:#000000;stroke-width:1px;stroke-linecap:butt;stroke-linejoin:miter;stroke-opacity:1" />
      <path
         style="fill:none;stroke:#000000;stroke-width:0.45460662px;stroke-linecap:butt;stroke-linejoin:miter;stroke-opacity:1"
         d="M 128,407.31248 128.066,385.39212 22,385.37848 21.934,407.29884 Z"
         id="path3808"
         inkscape:connector-curvature="0" />
      <path
         inkscape:connector-curvature="0"
         id="path3810"
         d="m 104.96271,377.31248 0.0373,29.98135 -59.962711,0.0186 L 45,377.33114 Z"
         style="fill:none;stroke:#000000;stroke-width:0.39975142px;stroke-linecap:butt;stroke-linejoin:miter;stroke-opacity:1" />
      <path
         transform="translate(0,257.31248)"
         inkscape:connector-curvature="0"
         id="path3812"
         d="m 22.27349,139.07241 v -10.68998 l 11.074178,0.11716 c 6.090798,0.0644 11.129052,0.16791 11.196121,0.22994 0.06707,0.062 0.172739,4.81979 0.234823,10.57282 l 0.112881,10.46005 H 33.582492 22.27349 Z"
         style="fill:#44aa00;stroke-width:0.26846492" />
      <path
         transform="translate(0,257.31248)"
         inkscape:connector-curvature="0"
         id="path3814"
         d="m 45.361473,139.15803 v -10.60436 h 3.692667 3.692667 l 10.601816,10.60436 10.601816,10.60437 H 59.655956 45.361473 Z"
         style="fill:#44aa00;stroke-width:0.26846492" />
      <path
         transform="translate(0,257.31248)"
         inkscape:connector-curvature="0"
         id="path3816"
         d="M 64.556715,138.75533 54.357697,128.55367 H 74.892614 95.42753 l -10.199017,10.20166 c -5.609459,5.61092 -10.260614,10.20167 -10.335899,10.20167 -0.07528,0 -4.72644,-4.59075 -10.335899,-10.20167 z"
         style="fill:#44aa00;stroke-width:0.26846492" />
      <path
         transform="translate(0,257.31248)"
         inkscape:connector-curvature="0"
         id="path3818"
         d="m 86.70507,139.15803 10.601816,-10.60436 h 3.692664 3.69267 v 10.60436 10.60437 H 90.397737 76.103255 Z"
         style="fill:#44aa00;stroke-width:0.26846492" />
      <path
         transform="translate(0,257.31248)"
         inkscape:connector-curvature="0"
         id="path3820"
         d="m 105.22915,139.15803 v -10.60436 h 11.27553 11.27552 v 10.60436 10.60437 h -11.27552 -11.27553 z"
         style="fill:#44aa00;stroke-width:0.26846492" />
      <path
         transform="translate(0,257.31248)"
         inkscape:connector-curvature="0"
         id="path3822"
         d="m 101.33641,124.52669 c 1.76725,-1.77187 3.24528,-3.22158 3.2845,-3.22158 0.0392,0 0.0713,1.44971 0.0713,3.22158 v 3.22158 h -3.2845 -3.284497 z"
         style="fill:#44aa00;stroke-width:0.26846492" />
      <path
         transform="translate(0,257.31248)"
         inkscape:connector-curvature="0"
         id="path3824"
         d="m 45.361473,124.46377 v -3.2845 l 3.221579,3.21319 c 1.771869,1.76725 3.221579,3.24528 3.221579,3.2845 0,0.0392 -1.44971,0.0713 -3.221579,0.0713 h -3.221579 z"
         style="fill:#44aa00;stroke-width:0.26846492" />
      <path
         transform="translate(0,257.31248)"
         inkscape:connector-curvature="0"
         id="path3826"
         d="M 23.145516,97.344137 0.79653126,74.993952 37.844574,37.946639 74.892614,0.8993279 111.94065,37.946639 148.9887,74.993952 126.63971,97.344137 104.29073,119.69432 H 74.892614 45.4945 Z"
         style="fill:#44aa00;stroke-width:0.26846492" />
      <path
         transform="translate(0,257.31248)"
         inkscape:connector-curvature="0"
         id="path3828"
         d="m 49.791144,123.98976 -3.751315,-3.75851 H 74.892614 103.7454 l -3.751316,3.75851 -3.751317,3.75851 H 74.892614 53.54246 Z"
         style="fill:#44aa00;stroke-width:0.26846492" />
    </g>
    <circle
       style="fill:#44aa00"
       id="path3832"
       cx="75"
       cy="332.31247"
       r="60" />
  </g>
</svg>
