<?xml version="1.0" encoding="UTF-8" standalone="no"?>
<!-- Created with Inkscape (http://www.inkscape.org/) -->

<svg
   xmlns:dc="http://purl.org/dc/elements/1.1/"
   xmlns:cc="http://creativecommons.org/ns#"
   xmlns:rdf="http://www.w3.org/1999/02/22-rdf-syntax-ns#"
   xmlns:svg="http://www.w3.org/2000/svg"
   xmlns="http://www.w3.org/2000/svg"
   xmlns:sodipodi="http://sodipodi.sourceforge.net/DTD/sodipodi-0.dtd"
   xmlns:inkscape="http://www.inkscape.org/namespaces/inkscape"
   width="150"
   height="150"
   viewBox="0 0 150 150"
   version="1.1"
   id="svg8"
   inkscape:version="0.92.3 (2405546, 2018-03-11)"
   sodipodi:docname="wbn_welcome.svg">
  <defs
     id="defs2" />
  <sodipodi:namedview
     id="base"
     pagecolor="#ffffff"
     bordercolor="#666666"
     borderopacity="1.0"
     inkscape:pageopacity="0.0"
     inkscape:pageshadow="2"
     inkscape:zoom="3.76"
     inkscape:cx="75"
     inkscape:cy="75"
     inkscape:document-units="px"
     inkscape:current-layer="layer1"
     showgrid="true"
     units="px"
     inkscape:window-width="1318"
     inkscape:window-height="743"
     inkscape:window-x="0"
     inkscape:window-y="0"
     inkscape:window-maximized="1">
    <inkscape:grid
       type="xygrid"
       id="grid10"
       empspacing="15"
       snapvisiblegridlinesonly="false" />
  </sodipodi:namedview>
  <metadata
     id="metadata5">
    <rdf:RDF>
      <cc:Work
         rdf:about="">
        <dc:format>image/svg+xml</dc:format>
        <dc:type
           rdf:resource="http://purl.org/dc/dcmitype/StillImage" />
        <dc:title />
      </cc:Work>
    </rdf:RDF>
  </metadata>
  <g
     inkscape:label="Layer 1"
     inkscape:groupmode="layer"
     id="layer1"
     transform="translate(0,-257.31248)">
    <path
       style="fill:none;stroke:#000000;stroke-width:1px;stroke-linecap:butt;stroke-linejoin:miter;stroke-opacity:1"
       d="m 23,400.31248 v -8 c 25.292501,-7.94134 47.837563,0.60787 22,-22 l 23,-23 -8,-7 -23,22 -31,-30 31.5,-30 22.5,23 8,-8 -23,-22.5 30,-30.5 30,31 -23,22 8,8 23,-23 29,30 -29,30 -23,-22 -8,7 23,23 c -22,21 -4,15 22,22 v 8 z"
       id="path16"
       inkscape:connector-curvature="0"
       sodipodi:nodetypes="cccccccccccccccccccccccc" />
    <path
       style="fill:#225500;stroke-width:0.25974026"
       d="m 23.623377,138.9863 v -3.49422 l 1.753246,-0.53207 c 3.264971,-0.99085 10.55305,-2.31887 17.840515,-3.25087 8.245246,-1.0545 10.103093,-1.42805 11.861252,-2.38496 2.394979,-1.30352 2.574311,-3.24738 0.583446,-6.32418 -0.5084,-0.78571 -2.882031,-3.37467 -5.274735,-5.75323 l -4.350366,-4.32467 11.390722,-11.38851 c 6.264899,-6.263686 11.390725,-11.451946 11.390725,-11.529465 0,-0.213322 -8.598203,-7.653476 -8.84473,-7.653476 -0.117912,0 -5.032961,4.611377 -10.92233,10.247502 -5.889369,5.636124 -11.026828,10.515819 -11.416577,10.843769 L 36.925914,104.0382 22.027892,89.628244 C 13.83398,81.702769 7.1298701,75.125792 7.1298701,75.01274 c 0,-0.113052 6.8276329,-6.709478 15.1725179,-14.658724 l 15.172518,-14.453174 7.284751,7.445683 c 4.006616,4.095124 9.070133,9.257371 11.252265,11.471657 l 3.967514,4.025974 4.42299,-4.420143 4.422992,-4.420143 -5.523099,-5.446332 C 60.264616,51.562055 55.119291,46.484756 51.868265,43.274652 l -5.910956,-5.836551 4.36461,-4.426843 c 2.400538,-2.434763 8.934242,-9.07725 14.519346,-14.761082 L 74.996,7.9159373 89.405522,22.795631 c 7.925239,8.183832 14.454058,14.970091 14.508498,15.080574 0.0544,0.110486 -4.985449,5.057787 -11.199734,10.994008 C 86.5,54.806431 81.372081,59.784857 81.318909,59.933382 c -0.109047,0.304605 8.256597,8.780904 8.66627,8.780904 0.145099,0 5.347221,-5.084416 11.560271,-11.298702 6.21306,-6.214285 11.37498,-11.298701 11.47095,-11.298701 0.17688,0 27.82407,28.493208 27.94582,28.800977 0.0824,0.208257 -27.6978,28.99123 -27.98118,28.99123 -0.11334,0 -5.31172,-4.88789 -11.55196,-10.861978 C 91.377745,83.42447 90.033348,82.22421 89.64633,82.527631 c -1.357447,1.064231 -8.360616,7.300675 -8.360616,7.445275 0,0.09469 5.138377,5.309546 11.418616,11.588574 l 11.41862,11.4164 -2.93203,2.99807 c -8.553252,8.74594 -8.837598,12.57093 -1.08196,14.55449 1.03967,0.26591 4.97327,0.96838 8.74133,1.56106 7.98898,1.25659 11.33138,1.87315 14.87672,2.74427 1.41413,0.34747 2.61218,0.63176 2.66233,0.63176 0.0502,0 0.0912,1.57792 0.0912,3.5065 v 3.50649 H 75.051948 23.623377 Z m 61.232485,-15.53046 c 5.322133,-5.32071 9.676606,-9.79207 9.676606,-9.93636 0,-0.14429 -4.38312,-4.64429 -9.740268,-10.00001 l -9.74027,-9.73767 -9.870127,9.86757 -9.87013,9.86756 9.803919,9.80647 c 5.392159,5.39356 9.862364,9.80647 9.933792,9.80647 0.07143,0 4.484343,-4.35331 9.806478,-9.67403 z M 122.90779,85.403914 c 5.25072,-5.249275 9.54676,-9.6622 9.54676,-9.806493 0,-0.144296 -4.38332,-4.644499 -9.7407,-10.000452 l -9.74069,-9.738096 -9.8039,9.803896 -9.803894,9.803893 9.738094,9.740696 c 5.35596,5.357382 9.85498,9.740694 9.99784,9.740694 0.14286,0 4.55578,-4.294862 9.80649,-9.544138 z m -76.492208,-20.260197 -9.80434,-9.804343 -9.870565,9.868 -9.870564,9.868 9.80435,9.806899 9.80435,9.806896 9.870556,-9.870556 9.870556,-9.870556 z m 39.025984,-17.858011 9.737673,-9.74027 -9.867566,-9.870128 -9.867567,-9.87013 -9.806477,9.80393 -9.806476,9.803928 9.80392,9.80647 c 5.392158,5.393556 9.863524,9.806468 9.936374,9.806468 0.07285,0 4.514402,-4.383119 9.870119,-9.740268 z"
       id="path25"
       inkscape:connector-curvature="0"
       transform="translate(0,257.31248)" />
    <path
       style="fill:#225500;stroke-width:0.25974026"
       d=""
       id="path27"
       inkscape:connector-curvature="0"
       transform="translate(0,257.31248)" />
    <path
       style="fill:#225500;stroke-width:0.25974026"
       d="m 22.584416,138.99246 v -4.26729 l 1.493506,-0.43473 c 5.210223,-1.51659 9.771364,-2.37858 18.485068,-3.49342 10.080568,-1.28972 12.220914,-1.81499 13.145524,-3.22612 0.603291,-0.92074 0.348837,-2.06249 -0.885145,-3.9717 -1.190959,-1.84265 -4.792517,-5.65481 -8.050522,-8.52128 L 44.411101,113 55.835421,101.57035 C 62.118797,95.284036 67.25974,90.073127 67.25974,89.990548 c 0,-0.08258 -1.635332,-1.578667 -3.63407,-3.324636 L 59.9916,83.491423 48.523722,94.479478 c -6.307332,6.043432 -11.492774,10.988052 -11.523203,10.988052 -0.06667,0 -21.399763,-20.624343 -27.3098559,-26.402543 L 5.4982096,74.966096 21.489162,59.736831 37.480114,44.507566 l 4.443855,4.505959 c 2.444119,2.478275 7.520688,7.647743 11.281265,11.487701 l 6.837408,6.981748 3.608548,-3.601644 c 1.984704,-1.980904 3.608506,-3.720091 3.608454,-3.864862 -5.4e-5,-0.144772 -5.08447,-5.221489 -11.298701,-11.281593 -6.214234,-6.060101 -11.298605,-11.108958 -11.298605,-11.219678 0,-0.241555 30.117984,-30.8790719 30.354672,-30.8782864 0.230037,7.634e-4 30.29468,31.1295464 30.29468,31.3669624 0,0.106192 -5.11956,5.094288 -11.376807,11.084654 l -11.376802,10.891577 3.712244,3.71888 3.712244,3.718878 11.494111,-11.491932 11.49411,-11.491935 0.89118,0.906379 c 5.77454,5.873036 28.46271,29.523457 28.46271,29.669875 0,0.247325 -29.08014,30.327411 -29.31925,30.327411 -0.0978,0 -4.96631,-4.57154 -10.8189,-10.158982 C 96.333938,89.591236 91.190688,84.683548 90.757086,84.272706 l -0.788369,-0.746987 -2.718125,2.370029 c -1.494969,1.303517 -3.171691,2.776629 -3.726049,3.273582 l -1.007922,0.903553 11.464982,11.467157 11.464977,11.46715 -2.10324,2.07433 c -2.98451,2.94346 -6.134483,6.75699 -7.01728,8.49549 -1.064813,2.09694 -1.023398,3.28904 0.150065,4.31935 1.265005,1.11069 3.528795,1.73952 10.004395,2.77896 11.36934,1.82497 15.41704,2.59586 19.80519,3.77196 l 0.97403,0.26106 v 4.2757 4.2757 H 74.922078 22.584416 Z m 104.025974,-0.0145 v -3.63246 l -1.68831,-0.45761 c -2.97504,-0.80638 -7.7349,-1.71512 -15.22856,-2.90737 -10.716839,-1.70507 -12.612852,-2.23632 -14.123982,-3.9574 -1.96926,-2.24286 -0.337239,-5.55286 5.975702,-12.11965 l 2.82471,-2.9383 -11.412524,-11.41031 C 86.680538,95.279161 81.574247,90.064745 81.610112,89.967247 c 0.120088,-0.32645 8.113644,-7.218273 8.376901,-7.222333 0.142857,-0.0021 5.336158,4.846499 11.540667,10.774894 6.20451,5.928389 11.36124,10.778892 11.4594,10.778892 0.39658,0 28.33669,-29.135365 28.21912,-29.42631 -0.094,-0.232559 -19.9424,-20.907813 -27.47793,-28.622593 L 112.97012,45.473621 101.47655,56.965018 89.982977,68.456416 85.747579,64.215177 81.512184,59.973938 92.979779,48.986153 104.44737,37.998369 103.28752,36.797886 C 102.64961,36.137621 96.086727,29.344156 88.703351,21.701299 81.319977,14.058442 75.188153,7.7724526 75.077081,7.7324344 74.846213,7.6492568 45.701299,37.181514 45.701299,37.498626 c 0,0.114223 5.14482,5.22428 11.432937,11.355683 l 11.432938,11.148008 -4.264119,4.264117 -4.264117,4.264119 -6.964593,-7.115927 C 49.243821,57.500868 44.164704,52.326 41.787423,49.914919 L 37.465094,45.53114 22.102677,60.16399 C 13.653348,68.212057 6.7402597,74.884722 6.7402597,74.992138 c 0,0.341145 29.9052213,29.176692 30.2590213,29.176692 0.186241,0 5.375719,-4.821427 11.532174,-10.714285 6.156457,-5.892857 11.316748,-10.714285 11.467314,-10.714285 0.30634,0 8.299932,6.963579 8.299932,7.230446 0,0.09348 -5.106672,5.277624 -11.348161,11.520324 l -11.348163,11.35036 4.300194,4.23515 c 4.32473,4.25932 5.522372,5.7183 6.490432,7.90676 1.229755,2.78007 -0.443297,4.45709 -5.367029,5.37977 -1.142857,0.21416 -4.532468,0.6959 -7.532468,1.07054 -8.445761,1.05469 -13.853688,2.03524 -18.246753,3.30847 l -1.883117,0.54578 v 3.55304 c 0,1.95417 0.07821,3.63125 0.173802,3.72684 0.09559,0.0956 23.32611,0.14429 51.623378,0.10823 l 51.449574,-0.0656 v -3.63245 z"
       id="path29"
       inkscape:connector-curvature="0"
       transform="translate(0,257.31248)" />
  </g>
</svg>
